# xmcd
# 
# Track frame offsets:
#     150
#     12532
#     23637
#     36112
#     47119
#     65341
#     76245
#     88008
#     100178
#     111931
# 
# Disc length: 1683
# 
# Revision: 1
# Processed by: cddbd v1.5.2PL0 Copyright (c) Steve Scherf et al.
# Submitted via: BonkEnc v1.0.6
# 
DISCID=7606910a
DTITLE=Various Artist - Best Of Country Disc 4
DYEAR=2006
DGENRE=Country
TTITLE0=Johhny Paycheck - Take This Job and Shove It
TTITLE1=Mickey Gilley - That's All That Matters to Me
TTITLE2=Faron Young - It's Four in the Morning
TTITLE3=Janie Fricke - Don't Worry 'Bout Me Baby
TTITLE4=Freddy Fender - Secret Love
TTITLE5=Don Gibson - Oh Lonesome Me
TTITLE6=Patsy Cline - Walkin' After Midnight
TTITLE7=Moe Bandy - Good Old Boys
TTITLE8=Lynn Anderson - How Can I Unlove You
TTITLE9=Exile - Woke Up in Love
EXTD=Disc 4
EXTT0=
EXTT1=
EXTT2=
EXTT3=
EXTT4=
EXTT5=
EXTT6=
EXTT7=
EXTT8=
EXTT9=
PLAYORDER=
